<?xml version="1.0" encoding="UTF-8"?>
<svg version="1.1" xmlns="http://www.w3.org/2000/svg" width="697" height="681" viewBox="0 0 697 681">
<!-- Outer white seal shape -->
<path d="M0 0 C2.38076912 1.95752128 4.69820025 3.95127771 7 6 C7.81082031 6.71929687 8.62164062 7.43859375 9.45703125 8.1796875 C18.18191512 16.38082285 24.50072783 25.99903301 31 36 C31.71542969 37.0828125 32.43085938 38.165625 33.16796875 39.28125 C39.42291577 48.89149973 44.63373758 59.03359524 49.5625 69.375 C50.04356201 70.38304687 50.52462402 71.39109375 51.02026367 72.4296875 C53.91013983 78.54328476 56.59024895 84.63990483 58.90234375 90.99609375 C60.1421438 94.3889985 61.50574735 97.7198075 62.875 101.0625 C75.12260687 131.57262316 82.18876478 161.70925738 82.18530273 194.66796875 C82.18749772 196.99757966 82.2057676 199.32672159 82.22460938 201.65625 C82.28368197 216.31798993 80.18702695 229.83368596 76.0625 243.9375 C75.87080231 244.60143768 75.67910461 245.26537537 75.4815979 245.94943237 C71.04718334 261.15622297 65.05158118 275.91887719 56 289 C55.443125 290.03125 54.88625 291.0625 54.3125 292.125 C43.61770137 310.8921179 26.00965286 328.3151657 8 340 C7.071875 340.62390625 6.14375 341.2478125 5.1875 341.890625 C-11.61892216 352.78050058 -29.45129809 359.00365251 -49 363 C-49.8964624 363.19505127 -50.7929248 363.39010254 -51.71655273 363.59106445 C-60.30050225 365.26938204 -68.81093479 365.3383405 -77.52416992 365.31567383 C-80.034143 365.31253546 -82.54290785 365.33597634 -85.05273438 365.36132812 C-95.93039236 365.40382236 -106.29049028 364.34489786 -116.98294067 362.37094116 C-118.7269041 362.05022287 -120.47532246 361.75390813 -122.22436523 361.4621582 C-135.07979911 359.30649018 -147.3296018 355.80858905 -159.625 351.5625 C-160.62217545 351.21916626 -160.62217545 351.21916626 -161.63949585 350.86889648 C-170.94229471 347.64296193 -179.99002509 343.97303832 -189 340 C-190.70304789 339.26544619 -192.40616493 338.53105269 -194.109375 337.796875 C-204.69751406 333.15647693 -214.82412394 327.99592768 -224.84179688 322.23193359 C-226.992658 321.00419092 -229.15694632 319.80467372 -231.328125 318.61328125 C-238.87786826 314.46013621 -246.04043046 310.10131713 -253 305 C-254.70614686 303.80936071 -256.41450688 302.6218869 -258.125 301.4375 C-262.48766679 298.37955599 -266.77727043 295.24825352 -271 292 C-271.7115625 291.46375 -272.423125 290.9275 -273.15625 290.375 C-281.621947 283.82819432 -289.28258091 276.39638452 -297 269 C-297.89460938 268.14792969 -298.78921875 267.29585938 -299.7109375 266.41796875 C-305.29074282 260.98500041 -310.18117098 255.11089279 -315 249 C-315.81597656 247.989375 -316.63195312 246.97875 -317.47265625 245.9375 C-323.76678678 238.05612214 -329.0986648 229.8098817 -334 221 C-334.34804688 220.38318359 -334.69609375 219.76636719 -335.0546875 219.13085938 C-341.43232763 207.68227606 -345.50197633 195.60301011 -349 183 C-349.31239624 181.92987671 -349.31239624 181.92987671 -349.63110352 180.83813477 C-351.44843457 173.89244483 -351.25772562 166.94964105 -351.1875 159.8125 C-351.18685547 158.58724609 -351.18621094 157.36199219 -351.18554688 156.09960938 C-351.16798209 152.39734406 -351.09897033 148.70095008 -351 145 C-350.97075439 143.81293457 -350.94150879 142.62586914 -350.91137695 141.40283203 C-350.53040358 133.06522118 -348.78528637 126.02497975 -345.8125 118.25 C-345.43802734 117.20457031 -345.06355469 116.15914063 -344.67773438 115.08203125 C-342.43675889 109.02799631 -339.79542913 103.58730443 -336.32641602 98.14135742 C-335.09820295 96.15853821 -334.08705073 94.18427528 -333.125 92.0625 C-330.44636305 86.57348985 -326.67788035 81.84897822 -323 77 C-322.19131662 75.9193379 -321.38272509 74.83860706 -320.57421875 73.7578125 C-315.3772889 66.86040169 -309.94321325 60.27853073 -304 54 C-303.29617188 53.24847656 -302.59234375 52.49695313 -301.8671875 51.72265625 C-300 50 -300 50 -298 50 C-297.75507813 49.39671875 -297.51015625 48.7934375 -297.2578125 48.171875 C-295.77434067 45.61035221 -294.41526069 44.72499008 -291.875 43.25 C-290.78832031 42.60804688 -290.78832031 42.60804688 -289.6796875 41.953125 C-289.12539063 41.63859375 -288.57109375 41.3240625 -288 41 C-287.97421875 42.18335938 -287.9484375 43.36671875 -287.921875 44.5859375 C-287.55162538 57.28336586 -287.55162538 57.28336586 -283 69 C-282.56171875 69.76828125 -282.1234375 70.5365625 -281.671875 71.328125 C-278.55017571 76.21563398 -274.88747174 80.15340945 -270.71020508 84.12988281 C-264.15211617 90.376646 -260.24418547 95.04778472 -258 104 C-257.18882503 106.38265915 -256.35424737 108.757442 -255.5 111.125 C-255.1184375 112.22070312 -254.736875 113.31640625 -254.34375 114.4453125 C-252.73105923 118.71144214 -250.89082412 122.85121284 -249 127 C-249.61294922 126.97905273 -250.22589844 126.95810547 -250.85742188 126.93652344 C-263.94946904 126.54973521 -275.50407499 126.87330402 -288 131 C-288.91652344 131.25394531 -289.83304688 131.50789062 -290.77734375 131.76953125 C-300.09016742 134.75610819 -308.52235646 142.58488424 -313.25 151.0625 C-315.40553897 156.01785343 -315.50962113 160.6772904 -315 166 C-313.9578443 164.81292916 -312.91630907 163.62531359 -311.875 162.4375 C-311.22789062 161.7053125 -310.58078125 160.973125 -309.9140625 160.21875 C-308.77058724 158.89325214 -307.651284 157.54532058 -306.5859375 156.15625 C-301.88972582 150.11434024 -295.27492942 145.42497647 -288 143 C-287.72027344 144.09054687 -287.44054687 145.18109375 -287.15234375 146.3046875 C-283.4971956 160.19767087 -279.48576603 174.58625398 -271.45703125 186.6640625 C-270.19925221 188.68055544 -269.19182755 190.64890232 -268.171875 192.7890625 C-266.02834605 197.13674343 -263.37432457 200.90582884 -260.4375 204.75 C-259.91663818 205.43884277 -259.39577637 206.12768555 -258.85913086 206.83740234 C-254.67718815 212.28914526 -250.20239078 217.37214364 -245.47265625 222.3515625 C-243.70205014 224.24804108 -242.04120456 226.13404444 -240.40234375 228.13671875 C-238.50787745 230.39467615 -236.73377948 232.29386421 -234.5 234.1875 C-233.81164062 234.77273438 -233.12328125 235.35796875 -232.4140625 235.9609375 C-231.61742187 236.63382813 -230.82078125 237.30671875 -230 238 C-229.03835937 238.83789062 -228.07671875 239.67578125 -227.0859375 240.5390625 C-210.07451138 255.2984722 -191.24879232 267.43170254 -170.90283203 277.09130859 C-169.04943201 277.9763939 -167.20981334 278.88566043 -165.37109375 279.80078125 C-155.89297162 284.45025704 -146.09981144 287.96944801 -136.08935547 291.29931641 C-134.39642094 291.86705678 -132.71395776 292.46595733 -131.03515625 293.07421875 C-127.60895932 294.11927496 -124.18784203 294.79600654 -120.67236328 295.46875 C-118.03375108 295.99329048 -115.42424403 296.59024759 -112.80859375 297.21875 C-78.92228859 305.34758193 -47.08926892 305.34566957 -14 294 C-14.46187924 295.58550203 -14.92744495 297.1699304 -15.39453125 298.75390625 C-15.78282104 300.07757202 -15.78282104 300.07757202 -16.17895508 301.42797852 C-19.59493458 312.12894314 -26.83251534 321.44507669 -35 329 C-19.62091826 321.83304929 -9.93709508 310.84485884 -4 295 C1.40653003 277.73645238 -2.33676362 260.41731079 -10.21777344 244.54785156 C-16.08419204 233.57472681 -23.5574175 224.08733304 -32 215 C-32.97066406 213.94232422 -32.97066406 213.94232422 -33.9609375 212.86328125 C-38.54890863 208.0706823 -43.75558625 204.04461262 -49 200 C-49.90621094 199.2884375 -50.81242187 198.576875 -51.74609375 197.84375 C-74.61434775 180.21936971 -101.78581301 165.1495842 -129.15625 155.9609375 C-132.53456097 154.81936539 -135.75316304 153.4688072 -139 152 C-139 151.67 -139 151.34 -139 151 C-131.43862816 151.89711191 -131.43862816 151.89711191 -128.78515625 152.51953125 C-111.16674426 155.55889264 -93.05131031 152.4615583 -78.4296875 142.1953125 C-74.01116051 138.89281744 -74.01116051 138.89281744 -70.375 134.7890625 C-69.694375 133.90347656 -69.694375 133.90347656 -69 133 C-68.34 133 -67.68 133 -67 133 C-66.71552002 132.41299316 -66.43104004 131.82598633 -66.13793945 131.22119141 C-65.11155063 129.21774032 -64.00949493 127.3527333 -62.79296875 125.4609375 C-62.3738623 124.80295166 -61.95475586 124.14496582 -61.52294922 123.46704102 C-61.08225098 122.77666748 -60.64155273 122.08629395 -60.1875 121.375 C-57.32286724 116.86434824 -54.60527423 112.42924962 -52.375 107.5625 C-46.98999797 96.39983954 -37.06551305 90.00072502 -27.01953125 83.37109375 C-13.33726358 74.28095112 -2.85818255 64.42360775 1.40454102 48.00585938 C2.38514362 43.05580638 2.40030021 38.21772045 2.3125 33.1875 C2.30412109 32.14086182 2.29574219 31.09422363 2.28710938 30.01586914 C2.18145421 23.18579077 1.68352318 16.62567713 0.4375 9.90234375 C-0.06476477 6.57035516 -0.06720813 3.36460702 0 0 Z " fill="#FCFBFC" transform="translate(479,203)"/>

<!-- Inner white ring/seal detail -->
<path d="M0 0 C0.75925781 0.28875 1.51851562 0.5775 2.30078125 0.875 C10.80358776 4.57330807 16.2397013 11.86030596 21.06640625 19.5078125 C27.76021348 28.13538626 36.3192016 30.66911653 46.39648438 34.12304688 C55.44830042 37.38086397 62.23857688 41.44350527 67.4375 49.75 C67.91058594 50.48734375 68.38367188 51.2246875 68.87109375 51.984375 C73.72868375 60.65744227 71.45039361 73.44581494 69 82.625 C65.03624726 97.73951066 67.54872471 109.9922483 72.11328125 124.55078125 C74.99438431 135.75789138 72.9835398 148.05414585 67.4375 158.125 C60.58213329 168.51542329 51.74676904 174.83221921 41.30810547 181.27075195 C28.79215871 189.03737661 21.79988118 197.91608961 14.68994141 210.69458008 C6.29571244 225.74264326 -1.45476199 236.55993013 -18.375 242.375 C-28.34310586 245.13041138 -36.62920933 244.17178114 -46.5625 242 C-59.86842576 239.10150531 -72.64737397 239.11931984 -86.0546875 241.48828125 C-91.02551127 242.35191243 -95.9636045 242.75156794 -101 243 C-101.73669922 243.03931641 -102.47339844 243.07863281 -103.23242188 243.11914062 C-119.1904407 243.87296217 -134.48595097 241.98756573 -147 230.9375 C-155.09783465 223.4363479 -159.78852395 214.24488025 -161.9375 203.5 C-164.27969723 192.48789529 -170.95418909 185.30361071 -179.625 178.5 C-184.26763617 174.79861061 -187.46617086 171.36459137 -190 166 C-190.52464844 164.91589844 -191.04929688 163.83179688 -191.58984375 162.71484375 C-196.31373409 150.27046782 -192.21463458 136.64197488 -187 125 C-185.29867003 121.89735953 -183.47624154 118.91247814 -181.60546875 115.91015625 C-177.41048652 108.30611303 -176.02351257 99.91523109 -175.125 91.375 C-173.9396138 81.37200416 -169.67273641 71.74831033 -162 65 C-155.23148896 59.80897392 -148.15364081 55.43919325 -140.61328125 51.4453125 C-129.51378414 45.30657718 -119.69660405 36.73226399 -111.73046875 26.88671875 C-101.75182874 16.00707287 -89.05122064 11.65488191 -74.79199219 10.07495117 C-66.92129754 9.15459925 -60.22456108 6.89572453 -52.96337891 3.8203125 C-49.46603118 2.35909783 -45.92008887 1.02759185 -42.375 -0.3125 C-41.72362061 -0.56684814 -41.07224121 -0.82119629 -40.40112305 -1.08325195 C-27.13141586 -6.15407102 -13.01405671 -5.16972184 0 0 Z M-61.75390625 40.66796875 C-64.80015158 41.91799241 -67.66213993 42.58762092 -70.89282227 43.17236328 C-85.67361632 45.90897652 -99.99892455 53.82856264 -111 64 C-111.721875 64.61746094 -112.44375 65.23492187 -113.1875 65.87109375 C-133.36360398 83.30776982 -153.14655412 109.56160528 -155.15087891 137.07080078 C-155.93002027 151.4063606 -154.21009951 161.33655377 -144.5703125 172.2734375 C-142.94070535 174.00210891 -141.28808107 175.70959619 -139.60546875 177.38671875 C-137.59043276 179.40779683 -135.65126671 181.45058999 -133.73046875 183.55859375 C-133.15103516 184.19216797 -132.57160156 184.82574219 -131.97460938 185.47851562 C-130.79046392 186.77654611 -129.61070734 188.07859508 -128.43554688 189.38476562 C-122.6881634 195.6402051 -116.73843203 200.6861372 -108.75 203.8125 C-107.25726563 204.40998047 -107.25726563 204.40998047 -105.734375 205.01953125 C-100.43713271 206.91897099 -95.83557374 207.18293662 -90.25 207.1875 C-89.4765625 207.19974609 -88.703125 207.21199219 -87.90625 207.22460938 C-83.37018575 207.23602564 -79.57482699 206.69115303 -75.17529297 205.46118164 C-70.67019351 204.50606011 -66.02536865 204.69684988 -61.4375 204.625 C-47.92779218 204.20830613 -36.76556075 202.55374667 -25.40625 194.65234375 C-23.32091119 193.22036596 -21.35091491 192.11760934 -19.0625 191.0625 C-8.1811479 185.79875651 1.03870503 177.98133782 10 170 C10.74121094 169.35546875 11.48242188 168.7109375 12.24609375 168.046875 C22.79377017 158.28443807 29.49478578 145.46838518 34 132 C34.26554688 131.23816406 34.53109375 130.47632813 34.8046875 129.69140625 C37.68976299 119.55412047 36.78655138 107.11162821 34.48828125 96.96484375 C33.95961966 93.7548106 33.87421706 90.68136157 33.80859375 87.43505859 C33.55897287 77.32749304 31.94946668 69.53231894 24.9765625 61.73828125 C17.81650099 55.32355038 8.8510346 52.34812027 0 49 C-7.04285097 46.24094498 -13.55039142 43.30615456 -19.94140625 39.234375 C-30.67499117 32.79829751 -50.81921016 35.80959093 -61.75390625 40.66796875 Z " fill="#FBFAFC" transform="translate(397,99)"/>

<!-- Key icon -->
<path d="M0 0 C0.94681641 -0.02449219 1.89363281 -0.04898438 2.86914062 -0.07421875 C12.44970067 -0.11378059 19.44828656 2.90520409 26.390625 9.47265625 C31.06785632 14.42442072 33.47428716 18.29883619 33.8125 25.25 C33.3886565 33.87901889 30.12655188 39.88781814 23.875 45.75 C18.49976543 50.10806131 14.32951241 53.18760363 7.2578125 53.609375 C-0.9455757 53.94746359 -0.9455757 53.94746359 -7.53173828 58.29980469 C-10.59665221 62.99030294 -12.8724217 68.02599151 -14.93725586 73.22436523 C-15.8125 75.375 -15.8125 75.375 -16.93017578 77.51831055 C-17.98190591 79.35648757 -17.98190591 79.35648757 -17.71484375 81.5234375 C-16.9586121 83.5570683 -16.9586121 83.5570683 -14.81640625 84.3515625 C-14.01074219 84.56554687 -13.20507812 84.77953125 -12.375 85 C-7.99130795 86.19619205 -7.99130795 86.19619205 -5.8125 88.375 C-5.96918239 91.90035375 -6.71629675 94.19413789 -8.375 97.3125 C-10.8125 99.375 -10.8125 99.375 -14.5625 99.25 C-15.98210795 98.97300333 -17.39878811 98.68066744 -18.8125 98.375 C-21.47862443 97.96978592 -24.12889607 97.65748462 -26.8125 97.375 C-28.16868499 98.50034105 -28.16868499 98.50034105 -27.875 101.4375 C-27.854375 102.406875 -27.83375 103.37625 -27.8125 104.375 C-27.17441406 104.60574219 -26.53632813 104.83648437 -25.87890625 105.07421875 C-19.12113708 107.74148177 -19.12113708 107.74148177 -17.625 110.8125 C-17.85862796 114.00541547 -18.47639263 117.03889263 -20.8125 119.375 C-24.13994189 119.60714711 -26.57805749 119.45481021 -29.75 118.375 C-33.33250249 117.20520327 -36.0642736 117.027942 -39.8125 117.375 C-40.43640625 117.890625 -41.0603125 118.40625 -41.703125 118.9375 C-43.8125 120.375 -43.8125 120.375 -46.3203125 120.30078125 C-47.18398438 120.09839844 -48.04765625 119.89601563 -48.9375 119.6875 C-49.80632812 119.49800781 -50.67515625 119.30851562 -51.5703125 119.11328125 C-53.8125 118.375 -53.8125 118.375 -55.8125 116.375 C-55.54313601 111.09033511 -54.05364575 107.42289893 -51.4375 102.875 C-48.91731137 98.45662674 -46.77608591 94.06720529 -44.8125 89.375 C-43.6102292 86.69565365 -42.3716529 84.03394932 -41.125 81.375 C-40.78194824 80.64313477 -40.43889648 79.91126953 -40.08544922 79.15722656 C-37.37487187 73.43530748 -34.47477043 67.83431867 -31.42700195 62.28515625 C-28.04732217 56.46013847 -28.04732217 56.46013847 -26.8125 50 C-28.06247863 46.71880609 -29.95292287 44.66049607 -32.33984375 42.12109375 C-36.58208364 37.09117006 -36.536967 31.6404838 -36.30078125 25.2734375 C-35.34477709 17.64070031 -31.76846854 12.78239761 -25.88671875 7.9921875 C-17.18043088 1.94223902 -10.47019657 0.01408231 0 0 Z " fill="#FAF8FB" transform="translate(354.8125,163.625)"/>
</svg>
